<svg xmlns="http://www.w3.org/2000/svg" width="1007.2" height="205.469" viewBox="0 0 201.44 41.094">
  <defs>
    <style>
      .cls-1, .cls-2 {
        fill-rule: evenodd;
      }

      .cls-2 {
        fill: #d75625;
      }
    </style>
  </defs>
  <path id="Path_177" data-name="Path 177" class="cls-1" d="M893.326,60.109a17.258,17.258,0,0,0-3.841-6.215,15.769,15.769,0,0,0-5.821-3.729,20.762,20.762,0,0,0-7.26-1.243H859V89.265h17.4a19.292,19.292,0,0,0,8.051-1.554,16.009,16.009,0,0,0,5.707-4.265A17.911,17.911,0,0,0,893.581,77a27.963,27.963,0,0,0,1.13-8.137A25.165,25.165,0,0,0,893.326,60.109Zm-8.334,15.257a10.347,10.347,0,0,1-2.261,3.757,8.19,8.19,0,0,1-3.221,2.063,11.372,11.372,0,0,1-3.729.621h-7.909V56.379H874.2a14.327,14.327,0,0,1,5.508.933A8.674,8.674,0,0,1,883.3,60a11.006,11.006,0,0,1,1.949,4.209,23.56,23.56,0,0,1,.593,5.51A16.534,16.534,0,0,1,884.992,75.366Z" transform="translate(-859 -48.906)"/>
  <path class="cls-1" d="M897.248,60.052h8.025V89.265h-8.025V60.052Z" transform="translate(-859 -48.906)"/>
  <path id="Path_178" data-name="Path 178" class="cls-1" d="M915.4,82.005a4.7,4.7,0,0,0,1.385,1.525,5.9,5.9,0,0,0,1.949.876,9.185,9.185,0,0,0,2.288.283,8.5,8.5,0,0,0,1.78-.2,5.983,5.983,0,0,0,1.695-.62,3.859,3.859,0,0,0,1.272-1.13,2.963,2.963,0,0,0,.509-1.78q0-1.808-2.4-2.712a48.077,48.077,0,0,0-6.7-1.809q-1.75-.394-3.418-0.932a11.64,11.64,0,0,1-2.967-1.412,6.87,6.87,0,0,1-2.09-2.2,6.239,6.239,0,0,1-.791-3.25,8.783,8.783,0,0,1,1.1-4.633,8.118,8.118,0,0,1,2.91-2.853,12.744,12.744,0,0,1,4.069-1.469,25.032,25.032,0,0,1,4.633-.425,23.193,23.193,0,0,1,4.605.452,12.254,12.254,0,0,1,3.984,1.526,9.156,9.156,0,0,1,2.91,2.854,9.579,9.579,0,0,1,1.384,4.491h-7.627a3.517,3.517,0,0,0-1.752-3.135,8.03,8.03,0,0,0-3.73-.82,13.775,13.775,0,0,0-1.469.085,4.906,4.906,0,0,0-1.44.368,2.974,2.974,0,0,0-1.1.819,2.163,2.163,0,0,0-.452,1.441,2.2,2.2,0,0,0,.791,1.752,6.113,6.113,0,0,0,2.062,1.1,25.847,25.847,0,0,0,2.911.763q1.638,0.339,3.333.735a34.154,34.154,0,0,1,3.419.96,11.223,11.223,0,0,1,2.967,1.5,7.251,7.251,0,0,1,2.09,2.315,6.809,6.809,0,0,1,.791,3.419,8.872,8.872,0,0,1-4.181,7.968,12.375,12.375,0,0,1-4.266,1.666,24.934,24.934,0,0,1-4.887.48,24.168,24.168,0,0,1-4.973-.509,13.139,13.139,0,0,1-4.323-1.695,9.709,9.709,0,0,1-3.108-3.136,9.818,9.818,0,0,1-1.327-4.887h7.627A4.389,4.389,0,0,0,915.4,82.005Z" transform="translate(-859 -48.906)"/>
  <path id="Path_179" data-name="Path 179" class="cls-1" d="M953.059,60.052V65.42h-5.876V79.885a3.912,3.912,0,0,0,.68,2.712,3.924,3.924,0,0,0,2.712.678q0.676,0,1.3-.056a10.976,10.976,0,0,0,1.186-.171v6.216a18.946,18.946,0,0,1-2.259.226c-0.828.036-1.639,0.057-2.429,0.057a23.485,23.485,0,0,1-3.532-.254A8.3,8.3,0,0,1,941.9,88.3a5.223,5.223,0,0,1-2.006-2.091,7.459,7.459,0,0,1-.735-3.56V65.42H934.3V60.052h4.859V51.295h8.023v8.757h5.876Z" transform="translate(-859 -48.906)"/>
  <path class="cls-1" d="M956.986,60.052h8.025V89.265h-8.025V60.052Z" transform="translate(-859 -48.906)"/>
  <path id="Path_180" data-name="Path 180" class="cls-1" d="M976.566,60.052v4.069h0.17a9.2,9.2,0,0,1,3.954-3.7,11.441,11.441,0,0,1,4.973-1.159,13.627,13.627,0,0,1,5.284.876,7.833,7.833,0,0,1,3.248,2.43,9.42,9.42,0,0,1,1.668,3.785,23.652,23.652,0,0,1,.48,4.945V89.265h-8.024v-16.5a10.234,10.234,0,0,0-1.13-5.4q-1.129-1.78-4.013-1.779-3.276,0-4.744,1.949t-1.47,6.412V89.265h-8.025V60.052h7.629Z" transform="translate(-859 -48.906)"/>
  <path id="Path_181" data-name="Path 181" class="cls-1" d="M1013.81,65.308a5.651,5.651,0,0,0-3.22.875,7.092,7.092,0,0,0-2.12,2.261,10.035,10.035,0,0,0-1.16,3.051,17.006,17.006,0,0,0-.33,3.306,16.289,16.289,0,0,0,.33,3.221,10.035,10.035,0,0,0,1.11,2.966,6.219,6.219,0,0,0,2.06,2.175,5.64,5.64,0,0,0,3.16.847,5.894,5.894,0,0,0,4.44-1.61,7.7,7.7,0,0,0,1.95-4.322h7.74a13.269,13.269,0,0,1-4.52,8.87A14.6,14.6,0,0,1,1013.7,90a15.959,15.959,0,0,1-6.02-1.1,13.283,13.283,0,0,1-4.66-3.078,13.924,13.924,0,0,1-2.99-4.719,16.248,16.248,0,0,1-1.078-6.017,19.452,19.452,0,0,1,.989-6.3,14.183,14.183,0,0,1,2.909-5.028,13.285,13.285,0,0,1,4.69-3.307,15.994,15.994,0,0,1,6.33-1.186,18.291,18.291,0,0,1,5,.679A13.306,13.306,0,0,1,1023.16,62a10.68,10.68,0,0,1,4.44,8.334h-7.86Q1018.96,65.307,1013.81,65.308Z" transform="translate(-859 -48.906)"/>
  <path id="Path_182" data-name="Path 182" class="cls-1" d="M1046.53,59.986v5.368h-5.88V79.819a3.934,3.934,0,0,0,.68,2.712,3.927,3.927,0,0,0,2.71.678c0.46,0,.89-0.018,1.3-0.055a11.391,11.391,0,0,0,1.19-.171V89.2a19.09,19.09,0,0,1-2.26.226c-0.83.036-1.64,0.057-2.43,0.057a23.487,23.487,0,0,1-3.53-.254,8.357,8.357,0,0,1-2.94-.989,5.224,5.224,0,0,1-2.01-2.091,7.46,7.46,0,0,1-.73-3.559V65.354h-4.86V59.986h4.86V51.229h8.02v8.758h5.88Z" transform="translate(-859 -48.906)"/>
  <path id="Path_183" data-name="Path 183" class="cls-2" d="M1050.46,84.272a5,5,0,1,1,1.47,3.531A4.807,4.807,0,0,1,1050.46,84.272Z" transform="translate(-859 -48.906)"/>
</svg>
